<svg id="Layer_1" data-name="Layer 1" xmlns="http://www.w3.org/2000/svg" viewBox="0 0 209.11 201.28"><defs><style>.cls-1,.cls-2{fill:#1d1d1b;}.cls-2{fill-rule:evenodd;}.cls-3{fill:#fff;}</style></defs><title>hecho-en-mexico</title><path class="cls-1" d="M254,237.09h3.3v6.49h6.6v-6.49h3.31v16.07h-3.31v-7h-6.6v7H254Z" transform="translate(-204.88 -222.66)"/><path class="cls-1" d="M267.15,253.61h-3.76v-7H257.7v7h-4.22v-17h4.22v6.51h5.7v-6.51h4.22v17Zm-2.84-8v7h2.38V237.55h-2.38V244h-7.52v-6.49h-2.38v15.14h2.39v-7Z" transform="translate(-204.88 -222.66)"/><path class="cls-1" d="M270,237.09h9.72v2.53h-6.42v4h5.87v2.53h-5.87v4.52h6.46v2.53H270Z" transform="translate(-204.88 -222.66)"/><path class="cls-1" d="M269.58,253.61v-17H280.2v3.46h-6.41v3h5.87v3.44h-5.87v3.61h6.46v3.43Zm.91-.9h8.85v-1.63h-6.46v-5.42h5.88V244h-5.88v-4.88h6.41v-1.61h-8.8v15.16Z" transform="translate(-204.88 -222.66)"/><path class="cls-1" d="M294.2,252.93a17.62,17.62,0,0,1-3.76.5c-5.33,0-9-2.6-9-8s3.44-8.59,9-8.59a11.11,11.11,0,0,1,3.73.67l-.23,2.71a7,7,0,0,0-3.56-.85c-3.4,0-5.53,2.53-5.53,5.83s2.08,5.73,5.59,5.73a9.22,9.22,0,0,0,3.61-.67Z" transform="translate(-204.88 -222.66)"/><path class="cls-1" d="M281,245.4c0-5.72,3.73-9,9.49-9h0a11.86,11.86,0,0,1,3.89.68h0l.32.13,0,.35-.3,3.41-.62-.33a6.36,6.36,0,0,0-3.33-.8h0c-3.15,0-5,2.27-5.06,5.38h0c0,3.06,1.85,5.24,5.13,5.26h0a8.91,8.91,0,0,0,3.41-.62h0l.61-.31.05.7.14,2.69-.45,0,.45,0,0,.39-.37.08a18.22,18.22,0,0,1-3.86.51h0c-5.46,0-9.49-2.79-9.49-8.48Zm.92,0c0,5.18,3.38,7.53,8.57,7.58h0a15.91,15.91,0,0,0,3.27-.41h0l-.08-1.68a11.47,11.47,0,0,1-3.19.47h0a5.85,5.85,0,0,1-6-6.18h0c0-3.5,2.32-6.3,6-6.3h0a7.58,7.58,0,0,1,3.16.61h0l.15-1.7a10.76,10.76,0,0,0-3.24-.52h0c-5.42,0-8.53,2.84-8.57,8.13Z" transform="translate(-204.88 -222.66)"/><path class="cls-1" d="M297,237.09h3.3v6.49h6.61v-6.49h3.3v16.07h-3.3v-7h-6.61v7H297Z" transform="translate(-204.88 -222.66)"/><path class="cls-1" d="M310.18,253.61h-3.76v-7h-5.68v7h-4.22v-17h4.22v6.51h5.69v-6.51h4.22v17Zm-2.85-8v7.05h2.4V237.54h-2.39V244h-7.51v-6.49h-2.38v15.16h2.39v-7.05Z" transform="translate(-204.88 -222.66)"/><path class="cls-1" d="M321.05,236.81c5.16,0,8.06,3.41,8.06,8.26s-2.85,8.36-8.06,8.36S313,250,313,245.07,315.82,236.81,321.05,236.81Zm0,14.09c3.37,0,4.62-2.92,4.62-5.83s-1.35-5.73-4.62-5.73-4.63,2.91-4.63,5.73S317.68,250.9,321.05,250.9Z" transform="translate(-204.88 -222.66)"/><path class="cls-1" d="M312.52,245.07c0-5.1,3.07-8.71,8.53-8.71h0v.9c-5,.06-7.57,3.07-7.61,7.81h0c0,4.76,2.55,7.87,7.61,7.91h0c5,0,7.56-3.22,7.6-7.91h0c0-4.67-2.67-7.77-7.6-7.81h0v-.9c5.39,0,8.5,3.68,8.52,8.71h0c0,5-3.09,8.81-8.52,8.82h0c-5.51,0-8.53-3.71-8.53-8.82Zm3.45,0c0-2.93,1.45-6.19,5.08-6.19h0c3.62,0,5.07,3.26,5.07,6.19h0c0,3-1.37,6.29-5.07,6.29h0v-.92c3,0,4.12-2.55,4.16-5.37h0c0-2.72-1.25-5.27-4.16-5.27h0c-2.95,0-4.15,2.55-4.17,5.27h0c0,2.82,1.13,5.36,4.17,5.37h0v.92c-3.73,0-5.08-3.3-5.08-6.29Z" transform="translate(-204.88 -222.66)"/><path class="cls-1" d="M338.09,237.09h9.72v2.53h-6.42v4h5.88v2.53h-5.88v4.52h6.47v2.53h-9.77Z" transform="translate(-204.88 -222.66)"/><path class="cls-1" d="M337.63,253.61v-17h10.63v3.46h-6.41v3h5.88v3.45h-5.88v3.59h6.47v3.45Zm.92-.9h8.86v-1.62h-6.47v-5.44h5.87V244h-5.87v-4.87h6.41v-1.62h-8.8v15.16Z" transform="translate(-204.88 -222.66)"/><path class="cls-1" d="M351.39,237.09h4.06l6.27,12h.06v-12h3.15v16.07h-4l-6.29-12h-.06v12h-3.16Z" transform="translate(-204.88 -222.66)"/><path class="cls-1" d="M364.93,253.61h-4.32L355,242.91v10.7h-4.07v-17h4.79l5.59,10.68V236.64h4.08v17Zm-10.38-12.92h.33l6.29,12h3.3V237.55h-2.25v12h-.79l-6.25-12h-3.32v15.16h2.23v-12Z" transform="translate(-204.88 -222.66)"/><path class="cls-2" d="M315.38,286.54c-14.73,1.16-29.12-2.54-23.81-20.75,1.4-4.71,4.82,5,5.93,5.19,8.7,1.62,35.09.24,52.52.28,5.71.08,15.55,12.06,8.49,13.48s-28.81.6-43.13,1.8Zm18.4,13.4c-2.12.77-6.83.35-11.06-3s-3.86-13.9,5.68-5.82c5.19,4.36,9.66-6.23,13.21-2.15s-1.63,8.69-7.83,11ZM233.39,306.3c-8.85,1.49-10.69-27.73-1.88-27.93,18.77-.38,38.05-.14,57.11,1,.82.07,1.51,15.52,1.06,15.62-23.54,5.91-37.75,8.17-56.29,11.27Zm83.43,10.59c-9-.66-23.76-17.8-17.73-27.53a143.77,143.77,0,0,1,15.29,0c1.42,9,5.58,12.72,12.73,17a31.47,31.47,0,0,1-10.29,10.55Zm11.33,3.95c-3.52.73-6.07-.78-3.73-3.07,9.26-9,19.05-20.56,28.45-27.37a174.31,174.31,0,0,1,32.52,4.26c9.45,2.11,7.68,11.2,7.43,19.83-5.5.56-4.09-3.16-7.92-2.86s-37.77,5.31-56.75,9.21ZM309.73,337.4c-.72,0-2.89.71-2.78,0,1.48-12.15,22.34-13.95,33.18-13.82,3.62.12,13.41-3.32,13.41.4q-21.92,6.7-43.81,13.42Zm-66,.71c-6,.85-14.49-15.85-11.17-22.72.7-1.4,3.63-2.14,5.07-2.4,14.26-2.48,43.47-11.28,54.36-11.48,1.59,0,6.56,9.57,3.84,11.28s-46,24.47-52.1,25.32Zm33.5,16.14c-5.82.35-21.86,1.19-27-.55-2.46-.84-6.28-6.47-4.14-7.78,15.46-9.83,37-20.33,52.08-28.53,4.13-2.3,8.65,3.61,10.82,7,.63,1-25.87,29.41-31.79,29.82Z" transform="translate(-204.88 -222.66)"/><path class="cls-1" d="M392.29,222.66H226.6a21.71,21.71,0,0,0-21.72,21.71V402.25a21.7,21.7,0,0,0,21.72,21.69H392.29A21.7,21.7,0,0,0,414,402.25V244.37A21.71,21.71,0,0,0,392.29,222.66ZM226.6,226.58H392.29a17.8,17.8,0,0,1,17.78,17.79V363.94H208.8V244.37A17.8,17.8,0,0,1,226.6,226.58Z" transform="translate(-204.88 -222.66)"/><path class="cls-3" d="M391,394.9a18.39,18.39,0,0,0-.45-2.35,14.14,14.14,0,0,0-1.92-4.37,14.92,14.92,0,0,0-4.42-4.39,15.4,15.4,0,0,0-22.58,7c-.13.3-.23.65-.34,1a13.09,13.09,0,0,0-.67,3.82c0,.21-.05.46-.05.66s.05.64.05,1,.09.82.13,1.23a15,15,0,0,0,1.06,3.66,14.6,14.6,0,0,0,3.1,4.49,13.86,13.86,0,0,0,3.45,2.64,15,15,0,0,0,7.46,1.94,15.35,15.35,0,0,0,10.68-4.3.43.43,0,0,1,.12-.14,12.15,12.15,0,0,0,1.68-2,12.74,12.74,0,0,0,1.67-3,14.7,14.7,0,0,0,1.06-5.49C391,395.79,391,395.31,391,394.9Zm-13.07,7.61a6.88,6.88,0,0,1-2.16.35,6.24,6.24,0,0,1-4.62-2,4.57,4.57,0,0,1-.31-.34,6.62,6.62,0,0,1-1.5-3.13,6.82,6.82,0,0,1-.1-1.16,7.69,7.69,0,0,1,.07-1,6.79,6.79,0,0,1,2.52-4.3,6.64,6.64,0,0,1,3.94-1.34,6.81,6.81,0,0,1,1.48.18,6.66,6.66,0,0,1,5,6.45h0a6.75,6.75,0,0,1-2.08,4.84A8.15,8.15,0,0,1,377.91,402.51Z" transform="translate(-204.88 -222.66)"/><polygon class="cls-3" points="129.18 182.27 129.18 159.59 122.94 159.59 122.94 159.62 120.14 159.62 120.14 188.13 129.18 188.13 129.18 182.27 129.18 182.27"/><path class="cls-3" d="M360.18,406.3c-.51-2-1.09-4.16-1.09-4.16l-.34.09a15.92,15.92,0,0,1-6.59.75,8.23,8.23,0,0,1-3.3-1.19,10.59,10.59,0,0,1-1.57-1.5,6.7,6.7,0,0,1-1.16-4c0-3.6,2.14-6,6-6.58a15.43,15.43,0,0,1,6.61.72l.34.1s1.3-6.52,1.64-7.95a20.59,20.59,0,0,0-7.68-1.26c-9.78,0-16.4,6.21-16.44,14.94v.11a16.1,16.1,0,0,0,.48,3.88c0,.06.35,1.13.52,1.5h0a13.55,13.55,0,0,0,3.55,5.18v0l.72.6a18.18,18.18,0,0,0,11.21,3.73,15.93,15.93,0,0,0,8.08-1.46C360.93,409.27,360.55,407.83,360.18,406.3Z" transform="translate(-204.88 -222.66)"/><polygon class="cls-3" points="61.75 184.79 61.27 182.48 59.81 175.34 56.57 159.62 46.57 159.62 42.69 173.67 38.77 159.62 29.14 159.62 25.74 175.41 24.2 182.48 23.69 184.79 22.98 188.13 32.28 188.13 34.88 175.34 35.26 173.41 37.43 180.76 39.61 188.13 45.72 188.13 47.91 180.76 50.09 173.41 50.47 175.34 53.06 188.13 62.43 188.13 61.75 184.79"/><path class="cls-3" d="M283.45,398.18H297v-1c0-8.6-4.2-14.37-11.53-15.55-.64-.08-1.3-.14-2-.19l-.93,0a2,2,0,0,0-.44,0,15.85,15.85,0,0,0-2.9.28c-6.82,1.27-11.49,6.62-11.49,14.84a14.85,14.85,0,0,0,3.38,10.06,14.59,14.59,0,0,0,8.83,4.74,20.53,20.53,0,0,0,3.24.27c6,0,11.93-3,13.43-9.72h-9a4.47,4.47,0,0,1-4.36,2.59h-.1c-2.56,0-4.4-1-5.36-2.86a5.52,5.52,0,0,1-.41-1,10.72,10.72,0,0,1-.3-1.66v-.75h6.41Zm4.57-5.77H277.16a5.27,5.27,0,0,1,3.9-4.3,6.58,6.58,0,0,1,1.67-.19A5.37,5.37,0,0,1,288,392.41Z" transform="translate(-204.88 -222.66)"/><polygon class="cls-3" points="77.2 158.23 77.99 157.85 79.62 156.92 81.84 155.77 86.75 153.14 81.77 146.9 73.48 154.23 76.11 157.09 77.2 158.23"/><polygon class="cls-3" points="112.53 178.62 109.7 173.88 112.64 169 118.23 159.59 117.72 159.59 108.11 159.59 106.77 162.11 104.05 167.22 101.31 162.11 99.99 159.59 89.82 159.62 95.44 169 98.38 173.88 95.56 178.62 89.86 188.13 99.99 188.13 101.31 185.65 104 180.56 106.77 185.6 108.11 188.13 118.23 188.13 112.53 178.62"/></svg>